<svg width="28" height="53" viewBox="0 0 28 53" fill="none" xmlns="http://www.w3.org/2000/svg">
<g clip-path="url(#clip0)">
<path d="M28.0003 28.8685V23.26L15.1699 15.9228V21.5313L28.0003 28.8685Z" fill="#D5333E"/>
<path d="M28.0003 36.8779V31.2694L15.1699 23.9514V29.5599L28.0003 36.8779Z" fill="#D5333E"/>
<path d="M28.0003 44.9065V39.298L15.1699 31.9608V37.5693L28.0003 44.9065Z" fill="#D5333E"/>
<path d="M28.0003 52.9351V47.3266L15.1699 39.9894V45.5979L28.0003 52.9351Z" fill="#D5333E"/>
<path d="M13.057 12.9457V7.33716L0.226562 0V5.60851L13.057 12.9457Z" fill="#D5333E"/>
<path d="M13.057 20.9551V15.3466L0.226562 8.02863V13.6371L13.057 20.9551Z" fill="#D5333E"/>
<path d="M13.057 28.9837V23.3752L0.226562 16.038V21.6465L13.057 28.9837Z" fill="#D5333E"/>
<path d="M13.057 36.9931V31.3846L0.226562 24.0667V29.6752L13.057 36.9931Z" fill="#D5333E"/>
</g>
<defs>
<clipPath id="clip0">
<rect x="0.226562" width="27.7736" height="52.9351" fill="white"/>
</clipPath>
</defs>
</svg>
